<?xml version="1.0" encoding="utf-8"?>
<!-- Generator: Adobe Illustrator 18.0.0, SVG Export Plug-In . SVG Version: 6.00 Build 0)  -->
<!DOCTYPE svg PUBLIC "-//W3C//DTD SVG 1.0//EN" "http://www.w3.org/TR/2001/REC-SVG-20010904/DTD/svg10.dtd">
<svg version="1.0" id="Layer_1" xmlns="http://www.w3.org/2000/svg" xmlns:xlink="http://www.w3.org/1999/xlink" x="0px" y="0px"
	 viewBox="0 0 833.6 833.6" enable-background="new 0 0 833.6 833.6" xml:space="preserve">
<g>
	<path fill="#00EEE2" d="M833.6,416.8C833.6,186.6,647,0,416.8,0S0,186.6,0,416.8c0,108.9,41.8,208,110.1,282.2
		c-3.3-181.2,150.8-259.2,150.8-259.2l-64.7-32.4l27.2-18l77.4,13.4l131.6-102c0,0-2.4-2-12.9-9.4c-8.5,5-15.1,6.8-19.1,5.1
		c-4-1.7,6.8-12.5,6.8-12.5l-33.3-21.5c0,0-13.2,8.6-18.7,6.2c-5.5-2.4,6.6-12.9,6.6-12.9s-18.7-13.4-36.6-24.8
		c-2.8,1.3-16.4,9-20.2,5.9c-3.9-3.1,7.4-14,7.4-14L280,202.9l30.5-22.1l88.2,29.8c0,0,6.4-5.7,13.8-10.5c7.4-4.8,15.6-8.5,21-2.4
		c5.3,6.1,3.3,9.6-0.7,13.1c-4,3.5-11.6,7.5-11.6,7.5l21.9,6.2c0,0,9.6-6.6,14.9-10.8c5.3-4.2,11-6.2,16.7,0.4
		c5.7,6.6,1.7,11.6,1.7,11.6l-8.8,7.9l43.6,13.1c0,0,71-52.2,85.3-58.1c14.3-5.9,62.9-8.6,72.2,12.7c9.4,21.3-9.9,58.8-27,71.5
		c-17.1,12.7-85.3,50.4-85.3,50.4l-5.1,43.7c0,0,4.8-2.8,8.6-4.6s10.8-0.6,12.3,6.4s-4.6,11.9-4.6,11.9l-19.3,11.9l-1.5,21
		c0,0,3.3-2.9,8.3-6.1s13.8-1.7,14.7,6.4c0.9,8.1-1.8,11-4.8,12.3c-2.9,1.3-22.1,12.3-22.1,12.3l-9.7,89.7L500,549.8l-4.2-40.6
		c0,0-13.6,10.5-16.7,2.9c-3.1-7.5,14-15.6,14-15.6l-4.8-43.7c0,0-13.6,6.4-16.2,2c-2.6-4.4,12.9-15.6,12.9-15.6s-1.8-20.6-3.5-41.2
		c-5.1,3.5-14.2,5-15.8,2.6c-1.7-2.4,12.9-16.4,12.9-16.4l-1.7-16.4l-148.7,75.7l-20.2,77.2l-29.2,19.1l-2-77.8
		c-38.2,42.4-52,108.7-52,140.7c0,62.7,23,110.7,40,132.5c37.4,55.8,95.9,84,144,98.3c2.7,0.1,5.4,0.1,8.1,0.1
		C647,833.6,833.6,647,833.6,416.8z"/>
	<g>
		<path d="M310.3,652.2l19.8-93.3h39.5c6.1,0,11.4,0.6,15.9,1.8c4.6,1.2,8.3,3.3,11.3,6.1c3,2.8,5.2,6.6,6.8,11.2
			c1.5,4.6,2.3,10.2,2.3,16.9c0,7.2-0.9,14.2-2.7,21s-4.8,13-9,18.4s-9.7,9.7-16.5,13c-6.8,3.3-15.2,4.9-25.2,4.9H310.3z
			 M350.6,641.9c3.2,0,6.1-1.3,8.6-4s4.7-6.1,6.5-10.3s3.3-8.8,4.6-13.8c1.2-5,2.2-9.9,2.9-14.6c0.7-4.7,1.3-8.9,1.6-12.6
			c0.3-3.7,0.5-6.4,0.5-7.9c0-3-0.6-5.4-1.8-7.1c-1.2-1.7-3.4-2.6-6.4-2.6H360l-15.7,73.1H350.6z"/>
		<path d="M487.9,652.2h-34.4l-2.1-23.4h-27.2l-10.4,23.4h-14.3l43.4-93.3h34.8L487.9,652.2z M429.1,618.1h21.3l-3.4-40L429.1,618.1
			z"/>
		<path d="M586.7,581c0,5.8-1.6,11.1-4.9,16c-3.2,4.9-8.6,8.6-16,11.2l17.1,44h-32.8l-12.9-40.7h-1.6l-8.7,40.7h-31.8l19.8-93.3
			h38.7c4.5,0,8.8,0.3,12.8,0.8c4,0.5,7.5,1.6,10.5,3.2c3,1.6,5.4,3.9,7.1,6.8C585.8,572.5,586.7,576.3,586.7,581z M544.3,602
			c2.5,0,4.7-0.9,6.5-2.6c1.8-1.7,3.3-3.8,4.4-6.2c1.1-2.4,1.9-5.1,2.4-7.9c0.5-2.8,0.7-5.2,0.7-7.3c0-2.5-0.4-4.7-1.3-6.5
			c-0.9-1.8-2.8-2.7-5.7-2.7h-6.6l-7.3,33.2H544.3z"/>
		<path d="M673.1,570h-23.7l-17.5,82.2h-31.8l17.5-82.2h-23.4l2.6-11.2h78.6L673.1,570z"/>
	</g>
</g>
</svg>
